<?xml version="1.0" encoding="UTF-8" standalone="no"?>
<svg
   xmlns:dc="http://purl.org/dc/elements/1.1/"
   xmlns:cc="http://creativecommons.org/ns#"
   xmlns:rdf="http://www.w3.org/1999/02/22-rdf-syntax-ns#"
   xmlns:svg="http://www.w3.org/2000/svg"
   xmlns="http://www.w3.org/2000/svg"
   xmlns:sodipodi="http://sodipodi.sourceforge.net/DTD/sodipodi-0.dtd"
   xmlns:inkscape="http://www.inkscape.org/namespaces/inkscape"
   version="1.1"
   id="Layer_1"
   x="0px"
   y="0px"
   viewBox="0 0 122.88 119.72"
   style="enable-background:new 0 0 122.88 119.72"
   xml:space="preserve"
   sodipodi:docname="collapse-plus.svg"
   inkscape:version="1.0.2-2 (e86c870879, 2021-01-15)"><metadata
     id="metadata11"><rdf:RDF><cc:Work
         rdf:about=""><dc:format>image/svg+xml</dc:format><dc:type
           rdf:resource="http://purl.org/dc/dcmitype/StillImage" /></cc:Work></rdf:RDF></metadata><defs
     id="defs9" /><sodipodi:namedview
     pagecolor="#ffffff"
     bordercolor="#666666"
     borderopacity="1"
     objecttolerance="10"
     gridtolerance="10"
     guidetolerance="10"
     inkscape:pageopacity="0"
     inkscape:pageshadow="2"
     inkscape:window-width="1920"
     inkscape:window-height="1030"
     id="namedview7"
     showgrid="false"
     inkscape:zoom="7.1834279"
     inkscape:cx="61.439999"
     inkscape:cy="59.860001"
     inkscape:window-x="-4"
     inkscape:window-y="1046"
     inkscape:window-maximized="1"
     inkscape:current-layer="Layer_1" /><g
     id="g4"
     style="fill:#666666"><path
       d="M22.72,0h77.45c6.25,0,11.93,2.56,16.05,6.67c4.11,4.11,6.67,9.79,6.67,16.05v74.29c0,6.25-2.56,11.93-6.67,16.05 l-0.32,0.29c-4.09,3.94-9.64,6.38-15.73,6.38H22.72c-6.25,0-11.93-2.56-16.05-6.67l-0.3-0.32C2.43,108.64,0,103.09,0,97.01V22.71 c0-6.25,2.55-11.93,6.67-16.05C10.78,2.55,16.46,0,22.72,0L22.72,0z M55.47,38.34c0-3.3,2.67-5.97,5.97-5.97 c3.3,0,5.97,2.67,5.97,5.97v15.55h15.55c3.3,0,5.97,2.67,5.97,5.97c0,3.3-2.67,5.97-5.97,5.97H67.41v15.55 c0,3.3-2.67,5.97-5.97,5.97c-3.3,0-5.97-2.67-5.97-5.97V65.83H39.91c-3.3,0-5.97-2.67-5.97-5.97c0-3.3,2.67-5.97,5.97-5.97h15.55 V38.34L55.47,38.34z M100.16,10.24H22.72c-3.43,0-6.54,1.41-8.81,3.67c-2.26,2.26-3.67,5.38-3.67,8.81v74.29 c0,3.33,1.31,6.35,3.43,8.59l0.24,0.22c2.26,2.26,5.38,3.67,8.81,3.67h77.45c3.32,0,6.35-1.31,8.59-3.44l0.21-0.23 c2.26-2.26,3.67-5.38,3.67-8.81V22.71c0-3.42-1.41-6.54-3.67-8.81C106.71,11.65,103.59,10.24,100.16,10.24L100.16,10.24z"
       id="path2"
       style="fill:#666666" /></g><path
     style="fill:#666666;stroke:none;stroke-width:0.139209"
     d="M 59.912071,87.070057 C 58.276888,86.611361 56.84505,85.394863 56.107326,83.837515 l -0.444513,-0.938375 -0.03887,-8.592108 -0.03887,-8.592108 -8.592108,-0.03887 -8.592108,-0.03887 -0.94298,-0.446669 C 35.688834,64.352559 34.448035,62.71372 34.116282,60.77696 33.684219,58.254589 35.07226,55.659493 37.457877,54.52948 l 0.94298,-0.446668 8.561372,-0.0696 8.561372,-0.06961 0.0696,-8.561372 0.06961,-8.561372 0.446668,-0.94298 c 2.141745,-4.521525 8.410308,-4.541934 10.629468,-0.03461 l 0.478236,0.971342 0.03887,8.595231 0.03887,8.595231 8.592108,0.03887 8.592108,0.03887 0.948719,0.449353 c 1.142278,0.541032 2.272386,1.64129 2.80593,2.731816 1.44139,2.946095 0.218169,6.424019 -2.777061,7.895883 l -0.971341,0.47732 -8.599299,0.03887 -8.599297,0.03888 v 8.323218 c 0,9.280456 0.02159,9.043124 -0.960963,10.563326 -0.629226,0.973535 -1.742775,1.876387 -2.823556,2.289301 -0.981953,0.375158 -2.603289,0.456118 -3.590199,0.179275 z"
     id="path13" /><path
     style="fill:#666666;stroke:none;stroke-width:0.139209"
     d="M 20.860487,119.56681 C 11.079259,118.76417 2.6983355,111.41134 0.60678043,101.79763 0.03349206,99.162543 0.03132074,98.983823 0.08458599,58.815931 0.1306243,24.097952 0.15875021,19.998587 0.35792127,18.977182 2.254399,9.2515126 9.393554,2.1288302 18.994617,0.3834879 l 1.72666,-0.31388325 h 40.718722 40.718721 l 1.72666,0.31388325 c 4.67653,0.8501293 8.78862,2.9704369 12.07286,6.2251036 3.53825,3.5063875 5.59927,7.3922815 6.5559,12.3606575 0.23368,1.213614 0.24756,3.506409 0.24756,40.890752 0,37.384342 -0.0139,39.677137 -0.24756,40.890749 -1.25081,6.49625 -4.74467,11.74692 -10.16341,15.27388 -3.14519,2.04715 -6.6856,3.2332 -10.60964,3.55428 -2.044174,0.16726 -78.834856,0.15577 -80.880603,-0.0121 z m 81.228633,-10.15715 c 1.39945,-0.22573 3.29806,-0.91099 4.52361,-1.63269 2.16817,-1.27678 4.29996,-3.80278 5.22485,-6.19104 0.89116,-2.30115 0.83144,0.69583 0.83144,-41.725929 0,-34.696019 -0.0222,-38.680556 -0.22109,-39.645719 -0.97153,-4.71492 -4.50523,-8.410385 -9.24514,-9.668356 l -1.18328,-0.314042 H 61.439999 20.860487 l -1.183279,0.311249 c -4.701561,1.236696 -8.314651,5.029954 -9.250542,9.711821 -0.201399,1.007513 -0.218972,4.829332 -0.184353,40.092279 l 0.03827,38.978605 0.316655,1.019902 c 0.655941,2.11268 1.561572,3.72115 2.923284,5.19196 1.799809,1.94401 4.567424,3.42847 7.222997,3.87418 1.048076,0.17591 80.254671,0.17375 81.345601,-0.002 z"
     id="path15" /><path
     style="fill:#666666;stroke:none;stroke-width:0.139209"
     d="m 74.699685,65.605382 c 0.287119,-0.03003 0.75695,-0.03003 1.04407,0 0.287119,0.03003 0.0522,0.05461 -0.522035,0.05461 -0.574239,0 -0.809154,-0.02457 -0.522035,-0.05461 z"
     id="path17" /></svg>
