<?xml version="1.0" encoding="UTF-8" standalone="no"?>
<svg
   xmlns:dc="http://purl.org/dc/elements/1.1/"
   xmlns:cc="http://creativecommons.org/ns#"
   xmlns:rdf="http://www.w3.org/1999/02/22-rdf-syntax-ns#"
   xmlns:svg="http://www.w3.org/2000/svg"
   xmlns="http://www.w3.org/2000/svg"
   xmlns:sodipodi="http://sodipodi.sourceforge.net/DTD/sodipodi-0.dtd"
   xmlns:inkscape="http://www.inkscape.org/namespaces/inkscape"
   version="1.1"
   id="Layer_1"
   x="0px"
   y="0px"
   viewBox="0 0 122.88 102.52"
   style="enable-background:new 0 0 122.88 102.52"
   xml:space="preserve"
   sodipodi:docname="table_icon.svg"
   inkscape:version="1.0.2-2 (e86c870879, 2021-01-15)"><metadata
     id="metadata13"><rdf:RDF><cc:Work
         rdf:about=""><dc:format>image/svg+xml</dc:format><dc:type
           rdf:resource="http://purl.org/dc/dcmitype/StillImage" /></cc:Work></rdf:RDF></metadata><defs
     id="defs11" /><sodipodi:namedview
     pagecolor="#ffffff"
     bordercolor="#666666"
     borderopacity="1"
     objecttolerance="10"
     gridtolerance="10"
     guidetolerance="10"
     inkscape:pageopacity="0"
     inkscape:pageshadow="2"
     inkscape:window-width="1680"
     inkscape:window-height="1000"
     id="namedview9"
     showgrid="false"
     inkscape:zoom="8.3886074"
     inkscape:cx="61.439999"
     inkscape:cy="51.259998"
     inkscape:window-x="94"
     inkscape:window-y="26"
     inkscape:window-maximized="1"
     inkscape:current-layer="Layer_1" /><style
     type="text/css"
     id="style2">.st0{fill-rule:evenodd;clip-rule:evenodd;}</style><g
     id="g6"
     style="fill:#ffffff"><path
       class="st0"
       d="M5.42,0h112.04c2.98,0,5.42,2.44,5.42,5.42V97.1c0,2.98-2.44,5.42-5.42,5.42H5.42c-2.98,0-5.42-2.44-5.42-5.42 V5.42C0,2.44,2.44,0,5.42,0L5.42,0z M8.48,23.58H38.1c0.82,0,1.48,0.67,1.48,1.48v9.76c0,0.81-0.67,1.48-1.48,1.48H8.48 c-0.81,0-1.48-0.67-1.48-1.48v-9.76C6.99,24.25,7.66,23.58,8.48,23.58L8.48,23.58z M84.78,82.35h29.63c0.82,0,1.48,0.67,1.48,1.48 v9.76c0,0.81-0.67,1.48-1.48,1.48H84.78c-0.81,0-1.48-0.67-1.48-1.48v-9.76C83.29,83.02,83.96,82.35,84.78,82.35L84.78,82.35z M46.8,82.35h29.28c0.82,0,1.48,0.67,1.48,1.48v9.76c0,0.81-0.67,1.48-1.48,1.48H46.8c-0.81,0-1.48-0.67-1.48-1.48v-9.76 C45.31,83.02,45.98,82.35,46.8,82.35L46.8,82.35z M8.48,82.35H38.1c0.82,0,1.48,0.67,1.48,1.48v9.76c0,0.81-0.67,1.48-1.48,1.48 H8.48c-0.81,0-1.48-0.67-1.48-1.48v-9.76C6.99,83.02,7.66,82.35,8.48,82.35L8.48,82.35z M84.78,62.76h29.63 c0.82,0,1.48,0.67,1.48,1.48V74c0,0.81-0.67,1.48-1.48,1.48H84.78c-0.81,0-1.48-0.67-1.48-1.48v-9.76 C83.29,63.43,83.96,62.76,84.78,62.76L84.78,62.76z M46.8,62.76h29.28c0.82,0,1.48,0.67,1.48,1.48V74c0,0.81-0.67,1.48-1.48,1.48 H46.8c-0.81,0-1.48-0.67-1.48-1.48v-9.76C45.31,63.43,45.98,62.76,46.8,62.76L46.8,62.76z M8.48,62.76H38.1 c0.82,0,1.48,0.67,1.48,1.48V74c0,0.81-0.67,1.48-1.48,1.48H8.48c-0.81,0-1.48-0.67-1.48-1.48v-9.76 C6.99,63.43,7.66,62.76,8.48,62.76L8.48,62.76z M84.78,43.17h29.63c0.82,0,1.48,0.67,1.48,1.48v9.76c0,0.81-0.67,1.48-1.48,1.48 H84.78c-0.81,0-1.48-0.67-1.48-1.48v-9.76C83.29,43.84,83.96,43.17,84.78,43.17L84.78,43.17z M46.8,43.17h29.28 c0.82,0,1.48,0.67,1.48,1.48v9.76c0,0.81-0.67,1.48-1.48,1.48H46.8c-0.81,0-1.48-0.67-1.48-1.48v-9.76 C45.31,43.84,45.98,43.17,46.8,43.17L46.8,43.17z M8.48,43.17H38.1c0.82,0,1.48,0.67,1.48,1.48v9.76c0,0.81-0.67,1.48-1.48,1.48 H8.48c-0.81,0-1.48-0.67-1.48-1.48v-9.76C6.99,43.84,7.66,43.17,8.48,43.17L8.48,43.17z M84.78,23.58h29.63 c0.82,0,1.48,0.67,1.48,1.48v9.76c0,0.81-0.67,1.48-1.48,1.48H84.78c-0.81,0-1.48-0.67-1.48-1.48v-9.76 C83.29,24.25,83.96,23.58,84.78,23.58L84.78,23.58z M46.8,23.58h29.28c0.82,0,1.48,0.67,1.48,1.48v9.76c0,0.81-0.67,1.48-1.48,1.48 H46.8c-0.81,0-1.48-0.67-1.48-1.48v-9.76C45.31,24.25,45.98,23.58,46.8,23.58L46.8,23.58z"
       id="path4"
       style="fill:#ffffff" /></g></svg>
